<?xml version="1.0" encoding="UTF-8"?>
<svg width="23px" height="23px" viewBox="0 0 23 23" version="1.1" xmlns="http://www.w3.org/2000/svg" xmlns:xlink="http://www.w3.org/1999/xlink">
    <title>Glyphs / Search</title>
    <g id="3---OUTDATED" stroke="none" stroke-width="1" fill="none" fill-rule="evenodd">
        <g id="007---Region/language-selector---Desktop---01" transform="translate(-1024.000000, -159.000000)" stroke="#196AB3" stroke-width="1.71428571">
            <g id="Group-26" transform="translate(379.000000, 147.000000)">
                <g id="Group-2" transform="translate(249.000000, 12.000000)">
                    <g id="Glyphs-/-Search" transform="translate(396.000000, 0.000000)">
                        <path d="M8.51795229,0.885070309 C10.5239043,0.819066073 12.5205269,1.51849353 14.0646686,2.96112548 C15.5394035,4.45586056 16.3483476,6.28705174 16.5033482,8.13181468 C16.6816494,10.2538941 15.994395,12.3906649 14.4741752,14.0345715 L14.4741752,14.0345715 L22.0435031,21.5637791 L14.2249188,14.7053883 C12.5111938,16.0720004 10.3683017,16.7013974 8.28543897,16.5612733 C6.48435393,16.4401058 4.72710445,15.74208 3.33691418,14.4405983 C1.76317453,12.8614918 0.950310398,10.8717985 0.885070309,8.88906982 C0.818989399,6.88078754 1.52011955,4.88185644 2.96642382,3.33691418 C4.54553034,1.76317453 6.53522363,0.950310398 8.51795229,0.885070309 Z" id="Shape"></path>
                    </g>
                </g>
            </g>
        </g>
    </g>
</svg>